<?xml version="1.0" standalone="no"?>
<!DOCTYPE svg PUBLIC "-//W3C//DTD SVG 20010904//EN"
 "http://www.w3.org/TR/2001/REC-SVG-20010904/DTD/svg10.dtd">
<svg version="1.0" xmlns="http://www.w3.org/2000/svg"
 width="1024.000000pt" height="1024.000000pt" viewBox="0 0 1024.000000 1024.000000"
 preserveAspectRatio="xMidYMid meet">
<metadata>
Created by potrace 1.14, written by Peter Selinger 2001-2017
</metadata>
<g transform="translate(0.000000,1024.000000) scale(0.100000,-0.100000)"
fill="#000000" stroke="none">
<path d="M4805 8490 c-360 -40 -706 -126 -982 -245 -178 -77 -385 -183 -478
-245 -22 -15 -60 -40 -84 -56 -123 -81 -153 -103 -236 -169 -149 -121 -329
-290 -430 -406 -96 -109 -126 -149 -120 -159 4 -6 1 -9 -6 -8 -13 3 -128 -139
-129 -159 0 -7 -3 -13 -7 -13 -5 0 -21 -23 -38 -51 -16 -28 -35 -56 -41 -63
-19 -20 -138 -236 -183 -331 -91 -191 -197 -475 -215 -577 -2 -15 -7 -32 -10
-37 -11 -18 -63 -273 -72 -356 -2 -22 -11 -94 -19 -160 -8 -69 -14 -212 -14
-335 0 -123 6 -266 14 -335 8 -66 17 -139 19 -162 21 -195 123 -571 215 -786
72 -169 215 -448 232 -455 5 -2 9 -7 9 -12 0 -5 37 -64 82 -132 190 -286 429
-544 728 -785 255 -205 716 -452 1005 -540 28 -8 75 -23 106 -33 30 -11 66
-21 80 -24 13 -3 69 -16 124 -30 107 -26 232 -48 385 -68 130 -17 624 -17 760
0 199 25 443 73 485 96 11 5 26 9 33 8 15 -4 170 46 307 98 127 49 128 49 325
147 226 113 570 339 553 366 -3 6 -1 7 6 3 6 -4 26 4 44 19 147 123 293 264
402 390 39 44 88 98 110 120 23 22 56 60 75 85 19 25 39 48 44 52 5 3 8 36 7
73 l-2 67 41 -3 41 -3 67 115 c196 335 349 761 417 1164 60 355 60 798 0 1135
-29 160 -87 390 -98 383 -6 -3 -7 -1 -3 5 14 23 -76 270 -178 487 -33 72 -63
132 -66 135 -3 3 -23 39 -44 80 -86 162 -289 445 -435 605 -173 189 -409 397
-566 501 -33 22 -74 49 -90 60 -17 11 -50 34 -75 51 -58 39 -286 160 -370 196
-36 15 -73 32 -82 38 -49 26 -230 91 -368 132 -164 49 -339 87 -523 113 -130
18 -626 28 -752 14z m715 -174 c258 -36 446 -81 685 -165 50 -18 95 -33 100
-35 38 -9 353 -164 445 -219 74 -44 276 -179 320 -213 45 -36 200 -167 234
-198 21 -19 43 -33 49 -29 6 3 7 2 4 -3 -3 -6 34 -51 83 -102 325 -337 580
-758 730 -1203 118 -351 164 -637 165 -1029 0 -266 -8 -351 -60 -645 -22 -122
-107 -408 -161 -542 -30 -75 -137 -289 -165 -330 -16 -23 -29 -46 -29 -52 0
-6 -4 -11 -10 -11 -5 0 -10 -6 -10 -12 0 -7 -13 -34 -29 -59 -27 -42 -38 -50
-123 -83 -51 -21 -97 -41 -101 -45 -5 -5 10 -23 32 -40 23 -18 41 -38 41 -45
0 -15 -82 -129 -136 -190 -18 -22 -34 -45 -34 -52 0 -23 -281 -297 -410 -399
-41 -33 -77 -63 -80 -66 -12 -15 -282 -191 -345 -224 -92 -50 -106 -60 -97
-70 4 -5 1 -5 -6 -1 -8 5 -37 -4 -70 -22 -31 -16 -102 -49 -157 -71 -55 -23
-109 -46 -120 -50 -175 -75 -482 -150 -760 -188 -162 -22 -605 -25 -735 -5
-47 7 -130 20 -185 28 -176 27 -479 109 -610 165 -11 4 -49 20 -85 35 -36 14
-107 46 -159 70 -51 24 -98 41 -104 37 -5 -3 -7 -2 -4 4 3 5 -11 18 -31 28
-100 53 -338 206 -422 272 -406 318 -698 671 -932 1125 -17 35 -32 65 -33 68
0 3 -8 21 -17 40 -66 141 -137 339 -182 510 -30 117 -67 298 -73 365 -3 28
-11 86 -18 130 -16 95 -13 585 3 680 6 33 13 83 16 110 4 42 24 144 66 341 5
22 28 97 51 165 23 68 43 131 44 139 1 8 12 38 24 65 12 28 26 59 31 70 32 71
49 111 52 120 17 53 244 446 268 465 3 3 21 28 40 55 115 171 376 448 575 610
121 99 321 235 458 313 48 28 84 52 80 54 -4 3 -2 3 5 2 19 -5 62 18 55 29 -3
6 -1 7 5 3 6 -3 39 7 74 23 35 16 85 39 111 50 27 11 46 25 42 31 -3 5 0 7 8
4 8 -3 81 17 163 45 186 62 333 100 484 125 37 6 268 35 320 40 99 9 520 -3
630 -18z m2250 -5031 c0 -21 5 -25 30 -25 25 0 30 4 30 25 0 16 6 25 15 25 12
0 15 -14 15 -70 0 -56 -3 -70 -15 -70 -10 0 -15 10 -15 30 0 27 -3 30 -30 30
-27 0 -30 -3 -30 -30 0 -19 -5 -30 -14 -30 -11 0 -15 18 -18 70 -3 61 -1 70
15 70 11 0 17 -8 17 -25z"/>
<path d="M4465 7790 c-171 -42 -254 -195 -225 -415 6 -44 10 -89 11 -100 0
-28 26 -130 51 -200 52 -144 147 -225 268 -225 56 0 149 28 194 58 39 26 112
119 101 130 -3 3 0 11 7 19 16 20 22 205 9 288 -24 155 -37 198 -88 300 -54
109 -126 156 -236 154 -34 -1 -75 -4 -92 -9z m143 -94 c62 -32 103 -111 143
-271 25 -105 36 -278 20 -341 -23 -91 -81 -138 -178 -143 -43 -2 -56 2 -94 31
-34 27 -51 50 -76 109 -46 107 -73 248 -73 380 0 148 21 195 105 234 39 18
119 19 153 1z"/>
<path d="M5259 7791 c-59 -18 -149 -89 -149 -118 0 -7 -4 -13 -9 -13 -13 0
-66 -132 -84 -210 -86 -361 -19 -548 212 -590 102 -18 200 14 271 89 90 94
170 437 142 603 -18 105 -53 160 -127 203 -67 39 -189 56 -256 36z m181 -104
c66 -33 84 -71 88 -188 9 -205 -54 -437 -139 -516 -87 -80 -239 -39 -278 76
-28 85 -5 326 47 475 28 80 78 147 125 166 41 16 110 11 157 -13z m97 -599
c-3 -8 -6 -5 -6 6 -1 11 2 17 5 13 3 -3 4 -12 1 -19z"/>
<path d="M6054 7656 c-44 -20 -114 -91 -114 -116 0 -12 -4 -19 -8 -16 -15 9
-45 -68 -48 -125 -5 -90 40 -148 142 -185 47 -16 56 -16 95 -4 69 23 173 139
153 172 -4 7 -3 8 4 4 16 -10 31 24 37 85 7 67 -19 118 -82 163 -50 35 -129
45 -179 22z m125 -67 c38 -13 51 -35 51 -86 0 -78 -85 -207 -149 -228 -22 -7
-82 18 -102 41 -50 60 64 284 145 284 13 0 37 -5 55 -11z m-272 -201 c-3 -8
-6 -5 -6 6 -1 11 2 17 5 13 3 -3 4 -12 1 -19z"/>
<path d="M3611 7507 c-25 -17 -50 -56 -97 -147 -63 -124 -63 -125 -46 -154 9
-16 22 -29 27 -29 10 0 84 121 107 176 7 15 15 27 19 27 5 0 117 -188 197
-330 10 -19 43 -75 72 -125 29 -49 61 -105 71 -123 24 -42 24 -59 -1 -67 -11
-3 -26 -12 -33 -18 -7 -7 -35 -24 -62 -39 -55 -29 -64 -51 -37 -84 l17 -22 75
43 c70 39 104 59 263 152 34 20 72 41 84 47 29 14 29 28 0 62 l-23 26 -76 -46
c-41 -25 -78 -46 -81 -46 -5 0 -31 44 -95 160 -14 25 -33 56 -42 70 -9 14 -29
45 -42 70 -153 271 -242 420 -252 420 -6 0 -27 -10 -45 -23z"/>
<path d="M6547 7297 c-82 -40 -145 -76 -141 -80 5 -4 2 -5 -7 -2 -8 3 -73 -22
-145 -55 -174 -82 -174 -82 -168 -91 3 -5 -1 -6 -9 -3 -8 2 -61 -17 -118 -44
-57 -27 -148 -71 -202 -96 -102 -48 -112 -61 -64 -84 28 -14 72 -8 62 9 -3 5
0 6 7 4 13 -5 72 20 351 154 71 33 130 61 132 61 3 0 65 29 140 65 75 36 138
65 139 65 14 0 256 122 256 130 0 14 -42 40 -65 39 -11 0 -87 -33 -168 -72z"/>
<path d="M6300 6979 c-33 -13 -71 -49 -64 -61 3 -5 0 -7 -7 -6 -18 4 -77 -89
-95 -151 -22 -76 -7 -128 52 -180 85 -74 189 -75 262 -1 57 59 64 69 88 129
39 94 29 164 -33 223 -54 52 -141 72 -203 47z m130 -74 c33 -17 54 -69 44
-111 -3 -16 -19 -53 -35 -82 -17 -29 -27 -58 -23 -65 4 -7 4 -9 -1 -5 -4 4
-23 -6 -42 -22 -18 -17 -43 -30 -54 -30 -31 0 -88 30 -100 53 -24 44 14 158
75 228 44 51 84 61 136 34z m61 -238 c-10 -9 -11 -8 -5 6 3 10 9 15 12 12 3
-3 0 -11 -7 -18z"/>
<path d="M6827 6553 c-12 -21 -36 -60 -54 -87 -18 -26 -33 -52 -33 -58 0 -5
-4 -7 -8 -4 -5 3 -15 -5 -21 -18 -16 -28 -136 -146 -216 -211 -85 -69 -153
-110 -292 -180 -68 -34 -120 -65 -116 -69 4 -4 0 -4 -9 -1 -17 7 -136 -51
-283 -139 -27 -17 -52 -33 -55 -36 -3 -3 -16 -11 -30 -19 -40 -23 -200 -145
-257 -196 -29 -26 -50 -52 -46 -58 4 -6 1 -7 -6 -3 -8 5 -43 -23 -98 -80 -280
-292 -469 -653 -547 -1044 -63 -322 -60 -534 13 -777 12 -40 26 -73 31 -73 6
0 10 6 10 13 0 7 57 128 127 268 71 140 127 260 126 267 0 7 2 11 5 8 3 -3 34
45 69 107 35 61 80 135 100 164 21 31 32 56 28 64 -5 7 -4 10 2 6 6 -4 26 16
44 46 32 49 108 156 119 167 28 26 78 99 72 105 -4 5 -2 5 5 1 6 -3 16 1 21
10 5 9 44 52 86 95 43 43 75 83 71 88 -4 7 1 8 11 4 13 -5 16 -2 12 9 -4 9 -1
15 6 14 10 -1 259 227 371 339 113 114 252 274 282 325 17 29 41 45 51 35 3
-3 -4 -15 -15 -28 -11 -12 -30 -39 -43 -61 -13 -21 -34 -50 -47 -64 -13 -14
-21 -32 -18 -39 2 -8 1 -12 -4 -9 -5 3 -29 -20 -54 -52 -24 -31 -55 -68 -67
-82 -12 -14 -39 -45 -59 -70 -20 -25 -40 -50 -46 -56 -5 -6 -33 -38 -61 -70
-29 -33 -63 -71 -75 -85 -13 -14 -45 -50 -70 -80 -26 -30 -80 -93 -122 -141
-109 -125 -332 -427 -360 -488 -4 -8 -20 -35 -36 -60 -31 -48 -113 -188 -120
-205 -2 -5 -7 -12 -10 -15 -16 -13 -40 -73 -34 -83 3 -7 2 -8 -2 -4 -5 4 -16
-7 -25 -25 -10 -18 -38 -73 -64 -123 -25 -49 -44 -96 -41 -103 3 -7 1 -10 -5
-7 -5 3 -21 -20 -36 -52 -43 -90 -105 -196 -126 -214 -18 -16 -17 -17 14 -22
87 -15 205 -18 304 -8 110 12 288 46 308 59 6 3 19 8 29 9 33 5 182 66 252
103 141 75 168 92 153 102 -9 7 -7 8 7 4 14 -4 37 7 75 35 30 23 66 49 81 58
34 21 164 144 243 230 64 71 196 243 196 256 0 5 6 16 14 24 26 30 56 92 50
103 -4 7 -2 8 4 4 14 -8 126 221 180 369 91 251 156 546 184 840 22 235 10
660 -22 785 -5 19 -12 52 -15 73 -3 21 -10 35 -15 32 -6 -3 -7 0 -4 8 7 20
-35 107 -52 107 -8 0 -25 -17 -37 -37z m-717 -1208 c0 -12 -19 -12 -23 0 -4 9
-1 12 9 8 7 -3 14 -7 14 -8z"/>
<path d="M3551 6543 c-29 -34 -111 -190 -115 -217 -1 -6 -5 -17 -10 -24 -14
-23 -83 -255 -104 -352 -39 -175 -51 -264 -63 -431 -39 -566 126 -1061 462
-1386 118 -114 297 -240 326 -229 8 3 12 2 9 -3 -7 -10 136 -73 170 -75 12 0
20 -4 18 -7 -3 -6 55 -20 139 -35 38 -7 39 -6 25 17 -7 13 -15 26 -18 29 -3 3
-6 12 -7 20 -1 16 -63 313 -87 420 -8 36 -33 128 -56 205 -23 77 -45 154 -50
170 -10 40 -95 265 -121 323 -12 26 -43 92 -69 147 -48 100 -77 163 -142 305
-19 41 -50 113 -67 160 -18 47 -37 94 -41 105 -20 48 -28 85 -21 90 5 2 19
-21 32 -53 33 -82 75 -170 89 -187 7 -8 9 -15 5 -15 -8 0 28 -65 133 -240 42
-69 90 -152 108 -185 19 -33 38 -59 44 -57 7 1 9 -2 5 -8 -3 -5 7 -36 23 -68
38 -74 107 -247 117 -290 4 -19 11 -30 17 -26 6 4 8 2 5 -3 -4 -6 4 -49 17
-94 13 -46 27 -97 31 -114 5 -16 9 -34 11 -40 10 -33 75 -361 80 -404 3 -28
11 -72 18 -98 l12 -46 39 59 c42 64 105 200 109 237 1 13 5 27 8 33 4 5 17 61
29 124 34 168 34 436 0 603 -13 64 -27 117 -31 117 -4 0 -8 10 -8 23 0 49
-129 355 -154 365 -4 2 -8 8 -8 13 0 9 -78 134 -104 166 -152 188 -192 231
-321 341 -136 117 -206 191 -273 292 -82 123 -106 177 -151 329 -11 37 -26 36
-60 -6z m836 -2115 c-3 -8 -6 -5 -6 6 -1 11 2 17 5 13 3 -3 4 -12 1 -19z"/>
<path d="M7145 3790 c-3 -5 -1 -10 4 -10 6 0 11 5 11 10 0 6 -2 10 -4 10 -3 0
-8 -4 -11 -10z"/>
<path d="M7106 3717 c3 -10 9 -15 12 -12 3 3 0 11 -7 18 -10 9 -11 8 -5 -6z"/>
<path d="M7131 3688 c-1 -21 15 -32 25 -17 4 7 3 9 -4 5 -6 -3 -13 2 -15 11
-4 16 -5 16 -6 1z"/>
<path d="M3475 3648 c-6 -15 -49 -239 -75 -388 -28 -158 -30 -168 -50 -270
-36 -184 -37 -174 20 -209 47 -28 56 -27 104 17 23 20 66 58 96 83 60 51 193
164 280 238 120 102 220 193 220 200 0 11 -56 41 -64 34 -3 -3 -6 -1 -6 6 0
11 -83 -57 -205 -168 -22 -20 -85 -77 -140 -125 -55 -49 -107 -96 -115 -105
-8 -9 -36 -34 -62 -55 -45 -36 -48 -37 -48 -16 0 22 52 293 124 648 14 67 11
75 -34 106 -29 19 -39 20 -45 4z m446 -431 c-10 -9 -11 -8 -5 6 3 10 9 15 12
12 3 -3 0 -11 -7 -18z"/>
<path d="M6485 3640 c-10 -11 -24 -20 -32 -20 -23 0 -14 -36 17 -68 17 -18 30
-42 30 -54 0 -13 7 -31 15 -42 8 -10 13 -30 11 -45 -2 -14 -1 -20 1 -12 9 25
45 -50 39 -80 -4 -22 -1 -29 15 -34 11 -4 25 -18 31 -31 l11 -24 11 23 c8 15
22 23 44 25 24 2 32 8 32 23 0 14 7 19 26 19 20 0 25 -4 20 -16 -3 -9 -6 -42
-6 -74 l0 -58 -50 -4 c-33 -2 -51 1 -55 10 -7 19 -26 14 -32 -8 -6 -21 -28
-27 -38 -10 -3 6 -14 10 -23 10 -10 0 -34 11 -55 25 l-37 26 0 -26 c0 -18 -5
-25 -20 -25 -16 0 -20 7 -20 38 0 31 -5 40 -31 55 -37 21 -53 21 -69 2 -19
-23 -4 -65 23 -65 13 0 27 4 33 10 5 5 15 6 23 0 21 -12 -2 -38 -37 -42 -25
-3 -23 -5 23 -30 28 -15 79 -47 114 -72 36 -25 72 -46 80 -46 8 0 54 -25 102
-55 122 -77 139 -82 188 -54 49 27 55 42 36 80 -9 16 -15 30 -14 31 0 2 -14
35 -32 73 -18 39 -36 81 -40 95 l-7 25 -7 -22 c-13 -42 -35 -27 -36 25 0 26
-1 63 -2 83 -2 27 2 35 16 36 10 1 21 -5 24 -13 3 -8 16 -14 29 -14 13 0 24
-5 24 -11 0 -5 5 -7 11 -4 6 4 8 9 5 12 -2 2 3 13 12 22 80 85 85 92 60 82
-15 -5 -30 -6 -39 0 -11 7 -10 9 6 10 11 1 2 5 -20 8 -36 5 -43 3 -72 -26 -18
-18 -37 -33 -42 -33 -14 0 -21 28 -8 34 7 2 3 5 -8 6 -14 2 -11 5 10 10 24 5
18 7 -28 8 -67 1 -81 9 -129 86 l-33 51 -3 -33 c-4 -45 3 -62 28 -62 13 0 20
-7 20 -20 0 -15 -7 -20 -28 -20 -46 0 -64 21 -70 78 -4 42 -8 52 -23 52 -12 0
-19 7 -19 20 0 13 7 20 20 20 11 0 20 6 20 14 0 8 3 21 6 30 9 24 -29 21 -51
-4z m150 -510 c3 -6 -1 -7 -9 -4 -18 7 -21 14 -7 14 6 0 13 -4 16 -10z"/>
<path d="M7061 3644 c0 -11 3 -14 6 -6 3 7 2 16 -1 19 -3 4 -6 -2 -5 -13z"/>
<path d="M7124 3639 c0 -10 4 -19 8 -19 4 0 8 6 8 14 0 8 -4 17 -8 20 -4 2 -8
-4 -8 -15z"/>
<path d="M7053 3583 c0 -8 6 -9 19 -2 10 5 18 11 18 12 0 2 -8 3 -18 3 -10 0
-19 -6 -19 -13z"/>
<path d="M6985 3559 c-4 -6 -5 -12 -2 -15 2 -3 7 2 10 11 7 17 1 20 -8 4z"/>
<path d="M6951 3533 c-1 -18 13 -23 29 -11 12 8 12 9 -2 5 -9 -3 -19 -1 -22 6
-3 9 -5 9 -5 0z"/>
<path d="M6975 3501 c-3 -5 -2 -12 3 -15 5 -3 9 1 9 9 0 17 -3 19 -12 6z"/>
<path d="M6916 3484 c-5 -14 -4 -15 9 -4 17 14 19 20 6 20 -5 0 -12 -7 -15
-16z"/>
<path d="M6124 3456 c-3 -7 -4 -18 -2 -24 2 -6 -22 -26 -52 -44 -30 -18 -56
-41 -58 -50 -2 -9 22 -60 52 -113 31 -53 56 -102 56 -108 0 -12 46 -86 60 -97
6 -5 143 -239 194 -332 12 -21 27 -38 34 -38 19 0 72 32 72 43 0 13 -42 81
-52 85 -4 2 -8 8 -8 14 0 5 -27 57 -61 115 -40 69 -57 109 -51 116 11 14 10
82 -1 94 -5 4 -5 1 -2 -8 3 -8 -1 -23 -9 -34 -13 -18 -16 -15 -46 45 -18 35
-43 81 -56 102 -13 21 -20 38 -14 38 6 0 15 -10 20 -22 5 -13 9 -17 9 -11 1 9
12 7 36 -7 l35 -20 0 37 c0 20 7 45 17 55 9 10 14 20 12 21 -12 10 -123 84
-142 94 -15 9 -17 13 -7 13 9 1 6 5 -7 10 -15 6 -21 15 -17 25 3 8 3 15 0 15
-4 0 -9 -6 -12 -14z"/>
<path d="M6970 3440 c0 -5 5 -10 10 -10 6 0 10 5 10 10 0 6 -4 10 -10 10 -5 0
-10 -4 -10 -10z"/>
<path d="M6542 3356 c7 -8 15 -12 17 -11 5 6 -10 25 -20 25 -5 0 -4 -6 3 -14z"/>
<path d="M4163 3283 c-13 -5 -25 -42 -93 -298 -27 -104 -56 -212 -64 -240 -42
-145 -59 -226 -49 -236 6 -6 68 -26 139 -44 71 -19 161 -43 199 -54 39 -11 74
-16 78 -12 4 4 9 20 10 35 2 33 -9 38 -195 87 -71 19 -128 38 -128 43 0 8 64
250 75 283 2 7 42 0 126 -23 67 -19 128 -33 136 -30 8 3 11 1 8 -4 -3 -6 -1
-10 5 -10 10 0 30 40 30 60 0 10 -62 31 -180 61 -47 11 -89 25 -93 29 -5 4 5
58 22 119 17 61 31 117 31 126 0 8 3 15 8 15 13 -1 115 -27 209 -54 51 -14 98
-26 106 -26 13 0 45 57 36 63 -10 7 -84 29 -172 52 -53 14 -128 33 -165 44
-37 10 -72 16 -79 14z m-56 -425 c-3 -8 -6 -5 -6 6 -1 11 2 17 5 13 3 -3 4
-12 1 -19z"/>
<path d="M5657 3238 c-15 -5 -29 -19 -31 -31 -7 -35 -26 -240 -36 -392 -6 -77
-15 -173 -20 -213 -6 -40 -10 -110 -10 -154 l0 -80 38 7 c20 4 39 8 40 10 10
10 22 89 22 152 0 46 4 75 13 80 6 4 41 15 77 24 59 15 185 49 236 64 16 5 26
-2 48 -34 16 -22 32 -39 36 -36 4 3 7 -1 7 -8 -1 -6 12 -34 28 -60 29 -46 32
-48 65 -42 76 14 79 7 -100 264 -67 96 -131 188 -182 263 -129 188 -138 198
-171 197 -18 0 -44 -5 -60 -11z m181 -278 c67 -98 118 -181 114 -184 -8 -4
-78 -24 -220 -62 -30 -8 -57 -12 -61 -9 -4 2 -4 30 0 62 4 32 11 117 15 188 5
110 10 170 13 183 5 15 36 -25 139 -178z m-211 -502 c-3 -8 -6 -5 -6 6 -1 11
2 17 5 13 3 -3 4 -12 1 -19z"/>
<path d="M6664 3235 c-8 -20 4 -35 27 -35 14 0 19 7 19 25 0 18 -5 25 -20 25
-11 0 -23 -7 -26 -15z"/>
<path d="M6807 3229 c7 -7 15 -10 18 -7 3 3 -2 9 -12 12 -14 6 -15 5 -6 -5z"/>
<path d="M6580 3209 c0 -5 5 -7 10 -4 6 3 10 8 10 11 0 2 -4 4 -10 4 -5 0 -10
-5 -10 -11z"/>
<path d="M6610 3210 c0 -5 5 -10 10 -10 6 0 10 5 10 10 0 6 -4 10 -10 10 -5 0
-10 -4 -10 -10z"/>
<path d="M4903 3135 c-23 -7 -62 -24 -85 -38 -52 -30 -130 -116 -123 -135 2
-7 1 -11 -4 -8 -5 3 -19 -18 -32 -47 -21 -46 -24 -67 -24 -185 0 -102 3 -135
14 -141 7 -5 11 -13 8 -18 -17 -27 112 -188 141 -178 7 3 10 1 7 -5 -3 -5 3
-14 14 -19 93 -50 250 -59 365 -21 108 36 106 31 106 228 0 92 -5 174 -10 182
-7 12 -37 15 -150 17 -130 1 -141 0 -151 -18 -5 -11 -7 -28 -4 -38 5 -17 17
-19 100 -20 51 -1 100 -3 107 -6 10 -4 12 -34 10 -130 l-3 -125 -51 -15 c-104
-31 -223 -12 -302 48 -18 14 -47 54 -66 89 -33 61 -34 67 -34 173 0 90 4 120
22 166 27 69 80 124 150 156 46 22 64 24 140 21 75 -3 97 -8 160 -39 l73 -35
5 22 c9 34 -3 57 -41 82 -75 48 -247 67 -342 37z"/>
<path d="M6850 3140 c0 -5 5 -10 11 -10 5 0 7 5 4 10 -3 6 -8 10 -11 10 -2 0
-4 -4 -4 -10z"/>
<path d="M9150 3790 c8 -5 10 -10 3 -10 -6 0 -10 -12 -8 -27 10 -110 19 -164
27 -169 4 -3 6 -10 2 -15 -3 -5 -2 -15 3 -22 5 -7 15 -25 22 -42 12 -29 11
-29 -23 8 -20 21 -36 42 -36 48 0 5 -4 9 -10 9 -5 0 -10 6 -10 13 0 6 -17 30
-38 53 l-38 41 -1 -53 c-1 -35 3 -54 11 -54 6 0 4 -5 -4 -10 -12 -7 -12 -12
-2 -22 6 -6 12 -22 12 -34 0 -12 7 -27 15 -34 21 -17 19 -27 -7 -34 -13 -3
-34 -15 -48 -26 l-25 -20 23 0 c41 0 23 -20 -20 -22 l-43 -1 38 -4 c38 -4 90
-46 102 -82 3 -9 21 -26 40 -39 19 -12 35 -27 35 -32 0 -6 5 -10 10 -10 6 0
23 -11 38 -25 15 -14 42 -30 60 -36 17 -6 30 -15 27 -20 -3 -4 15 -14 39 -20
27 -7 43 -16 39 -22 -7 -12 47 0 61 14 6 5 3 23 -9 46 -29 57 -29 57 -11 50
20 -8 19 -9 1 43 -21 59 -20 74 6 67 48 -13 119 35 157 108 l17 31 25 -23 c14
-13 28 -23 32 -23 21 0 52 189 42 260 -3 25 -12 69 -20 98 l-15 52 -267 0
c-176 0 -262 -4 -252 -10z"/>
<path d="M7920 3229 c0 -18 2 -19 15 -9 8 7 15 16 15 21 0 5 -7 9 -15 9 -9 0
-15 -9 -15 -21z"/>
</g>
</svg>
